<svg width="174" height="46" fill="none" xmlns="http://www.w3.org/2000/svg"><path d="M14.22 7.926c4.725-1.59 5.032-7.46.43-7.46-1.29 0-2.824.917-3.867 2.69L4.523 13.98c-.307.489-.552.917-.92 1.345-1.596-2.201-1.167-5.504 1.104-6.971l-.92-1.162C-1.124 10.311.35 19.238 8.511 19.238c6.935 0 10.188-8.316 5.708-11.312zm-5.77 9.54c-1.41 0-2.454-.307-3.375-.796.43-.489.798-1.04 1.166-1.65l3.928-6.788.614.06c5.462 1.163 3.314 9.173-2.332 9.173zm2.517-10.58l1.902-3.24c1.719-2.936 3.867-1.224 2.7.978-.92 1.712-2.209 2.201-4.602 2.262z" fill="#fff"/><path d="M33.92 15.448c-.369 1.346.368 2.507 1.902 2.507.92 0 2.087-.611 3.253-1.528.122.917.859 1.528 2.025 1.528 1.227 0 2.578-.856 3.928-2.079-.246 1.223.307 2.08 1.473 2.08 1.288 0 2.7-1.162 3.805-2.202-.246 1.223.49 2.201 1.964 2.201 1.902 0 4.111-2.079 6.075-4.28 0-.061-.061-.061-.061-.122 1.289-1.468 2.393-3.058 3.253-4.159-.921 2.385-.43 6.727-2.64 6.727-.797 0-1.104-.856-1.104-.856l-1.473.734s.43 1.895 2.578 1.895c.245 0 .43 0 .675-.061h.061c1.718-.245 3.376-1.284 4.848-2.568.062 1.529 1.228 2.63 3.13 2.63 2.64 0 5.278-2.08 7.18-4.281-.183-.306-.552-.673-.859-.795l-.184.183c-1.657 1.957-3.805 3.486-5.462 3.486-1.411 0-2.27-.918-1.227-2.752l.245-.428c1.473.611 4.296.306 6.076-2.69l.307-.55c1.227-2.141.061-3.731-1.841-3.731-1.903 0-3.375.978-4.357 2.69l-2.271 3.853h-.061l-.185.183c-.859.979-1.902 1.896-2.823 2.507.737-2.2.553-5.625 2.026-8.56l-1.719-.918c-.982 1.346-3.068 4.342-5.155 6.788l.061.061-.061.122c-1.657 1.957-3.314 3.486-4.357 3.486-.491 0-.798-.367-.246-1.284l4.971-8.683h-2.332l-4.112 7.215c-1.78 1.59-3.13 2.507-3.56 2.324-.552-.245 0-1.1.308-1.59l4.541-7.888h-2.332l-3.682 6.36c-.062-.062-.123-.062-.184-.123l-.185.183c-1.657 1.957-3.314 3.486-4.357 3.486-.49 0-.798-.367-.245-1.284l3.743-6.543h-1.35c.061-.979-.92-2.324-2.455-2.324-1.227 0-3.007.979-3.989 2.69l-2.332 4.037a1.283 1.283 0 00-.368-.245l-.184.183c-1.657 1.957-3.805 3.486-5.462 3.486-1.412 0-2.271-.917-1.228-2.752L30.3 9.64c1.35-2.324 3.743-1.896 2.332.49l-.307.55h1.902l.307-.55c1.228-2.141.062-3.73-1.84-3.73-1.903 0-3.376.978-4.358 2.69l-2.332 3.974c-.062-.06-.123-.06-.184-.122l-.184.184c-1.658 1.956-3.806 3.485-5.463 3.485-1.411 0-2.27-.917-1.227-2.752l.245-.428c1.473.612 4.296.306 6.076-2.69l.307-.55c1.227-2.14.061-3.73-1.841-3.73s-3.375.978-4.357 2.69l-2.455 4.158c-1.473 2.446-.184 4.77 2.577 4.77 2.026 0 4.112-1.223 5.77-2.813-.062 1.59 1.165 2.813 3.13 2.813 1.963-.123 3.866-1.223 5.523-2.63zm35.595-5.87c1.35-2.324 3.743-1.896 2.332.49l-.307.55c-1.105 1.895-2.639 1.834-3.498 1.528l1.473-2.568zm-33.263 5.687l3.252-5.626c1.228-2.14 3.744-1.59 2.578.49l-1.841 3.179c-1.412 2.201-2.823 3.24-3.744 3.24-.49-.06-.798-.366-.245-1.283zM21.4 9.578c1.35-2.324 3.744-1.896 2.332.49l-.307.55c-1.105 1.895-2.639 1.834-3.498 1.528L21.4 9.578zm78.923 8.376c2.639 0 5.278-2.08 7.18-4.28-.184-.306-.552-.673-.859-.795l-.184.183c-1.657 1.957-3.805 3.486-5.462 3.486-1.411 0-2.27-.918-1.227-2.752l.245-.428c1.473.611 4.296.306 6.076-2.69l.307-.551c1.227-2.14.061-3.73-1.841-3.73-1.903 0-3.376.978-4.358 2.69l-2.27 3.853s-.062 0-.062-.061l-.184.183c-1.657 1.957-3.314 3.486-4.357 3.486-.491 0-.798-.367-.246-1.284l3.376-5.87c.982-1.774.061-3.058-1.228-3.058-.982 0-2.086.55-3.252 1.773l3.743-6.42h-2.393L86.76 13c-.061-.061-.184-.122-.246-.183L86.33 13c-1.657 1.957-3.314 3.485-4.357 3.485-.49 0-.798-.367-.245-1.284l4.97-8.683h1.903l.675-1.1h-1.902l2.21-3.792H87.25l-2.21 3.791h-2.086L82.28 6.52h2.148l-4.664 8.072c-.982 1.712-.307 3.302 1.595 3.302 1.166 0 2.394-.734 3.683-1.835l-.92 1.59h2.331l3.56-6.115c3.56-4.464 5.155-3.913 4.173-2.201l-3.007 5.259c-.982 1.712-.307 3.302 1.595 3.302 1.412 0 3.008-1.1 4.48-2.568 0 1.528 1.166 2.629 3.069 2.629zm1.903-8.377c1.35-2.324 3.743-1.896 2.332.489l-.307.55c-1.105 1.896-2.639 1.835-3.498 1.529l1.473-2.568zM170.9 12.88l-.184.183c-1.657 1.956-3.314 3.485-4.358 3.485-.491 0-.797-.367-.245-1.284l7.855-13.575h-2.332l-3.437 5.87c-.429-.673-1.166-1.223-2.148-1.223-1.227 0-3.007.979-3.989 2.69l-2.27 3.914c-.062 0-.123-.06-.123-.06l-.184.183c-1.657 1.956-3.314 3.485-4.358 3.485-.491 0-.797-.367-.245-1.284l3.375-5.87c.982-1.774.062-3.058-1.227-3.058-.982 0-2.087.55-3.253 1.712l.859-1.528h-2.332l-3.743 6.42c-.062-.06-.123-.122-.246-.122l-.184.183c-1.657 1.957-3.314 3.486-4.357 3.486-.491 0-.798-.367-.246-1.284l3.744-6.543h-1.166c.061-.979-.921-2.324-2.455-2.324-1.227 0-3.007.979-3.989 2.69l-2.271 3.853-.123.122c-1.657 1.957-3.314 3.486-4.357 3.486-.491 0-.798-.367-.245-1.284l2.332-4.036c.798-1.406.429-2.201-.307-3.119l-1.289-1.59c-.307-.428-.307-.917.123-1.345l-1.228-1.345c-1.35 1.162-1.411 2.507-.613 3.547l.184.244c-1.044 1.468-2.394 3.424-3.928 5.198l.184.183c-1.902 2.202-3.559 3.608-5.4 4.403l2.945-5.014h-2.27l-.246.428c-1.227 2.14-2.639 3.73-4.48 3.73-1.596 0-1.902-1.59-.491-3.975l.675-1.162c.43.062.859.123 1.35.123 8.285 0 12.275-11.068 4.971-11.068-1.288 0-2.823.917-3.866 2.69l-3.621 6.237c-1.35-.733-2.087-2.017-2.087-3.302 0-1.1.491-2.14 1.473-2.935l-.736-1.345c-1.657 1.162-2.394 2.752-2.394 4.342 0 1.834 1.044 3.607 2.946 4.586l-.675 1.223c-1.657 2.813-1.35 5.931 1.964 5.931a4.69 4.69 0 002.516-.734l-.613 1.04c-3.13.978-5.094 2.201-5.094 3.975 0 2.201 3.437 2.69 5.094-.184l1.779-3.057c2.394-.734 4.787-2.385 7.365-5.381-.062-.062-.062-.123-.123-.245 1.043-1.223 1.903-2.385 3.682-4.77l.307.367c.307.367.43.856.123 1.345l-2.455 4.281c-.982 1.712-.307 3.302 1.596 3.302 1.166 0 2.455-.734 3.682-1.834 0 1.04.675 1.834 2.025 1.834.921 0 2.087-.611 3.253-1.529.123.918.859 1.529 2.025 1.529 1.105 0 2.332-.673 3.498-1.712l-.859 1.467h2.332l3.56-6.176c3.559-4.464 5.155-3.852 4.112-2.14l-3.008 5.259c-.981 1.712-.306 3.302 1.596 3.302 1.227 0 2.578-.856 3.928-2.018-.123 1.162.614 2.018 2.025 2.018.921 0 2.087-.611 3.253-1.529.122.918.859 1.529 2.025 1.529 1.902 0 4.112-2.079 6.076-4.28-.246-.123-.675-.49-.982-.612zm-47.808-8.684c.675-1.162 1.473-1.712 2.086-1.712 3.683 0 1.105 7.521-4.971 7.521h-.491l3.376-5.81zm-4.971 17.489c-.491.856-1.289.733-1.289.122 0-.612.552-1.284 2.332-1.957l-1.043 1.835zm24.364-8.439c-1.412 2.201-2.823 3.24-3.744 3.24-.491 0-.797-.366-.245-1.283l3.253-5.626c1.227-2.14 3.743-1.59 2.577.49l-1.841 3.179zm22.523-.122c-1.411 2.323-2.823 3.363-3.805 3.363-.491 0-.798-.367-.245-1.284l3.252-5.626c1.228-2.14 3.744-1.59 2.578.49l-1.78 3.057zM93.143 34.892l-.184.184c-1.657 1.957-3.314 3.486-4.358 3.486-.49 0-.798-.367-.245-1.285l3.375-5.87c.982-1.773.062-3.057-1.227-3.057-.982 0-2.087.55-3.253 1.712l.86-1.529h-2.333l-3.743 6.482c-.123-.061-.185-.123-.307-.184l-.184.184c-1.044 1.162-2.332 1.712-3.499 1.712l2.21-3.791c1.411-2.446.123-4.709-2.087-4.709-1.78 0-3.191.734-4.541 3.058l-1.166 1.957-.982 1.712c-.062-.062-.123-.062-.184-.123l-.184.184c-1.903 2.201-3.56 3.608-5.401 4.403l6.382-10.885H69.76l-4.112 7.154c-1.78 1.652-3.19 2.569-3.62 2.385-.553-.244 0-1.1.306-1.59l4.542-7.888h-2.332l-3.744 6.42c-.061-.06-.123-.06-.184-.122l-.184.184c-1.657 1.957-3.314 3.486-4.357 3.486-.491 0-.798-.367-.246-1.285l3.376-5.87c.982-1.773.06-3.057-1.228-3.057-.982 0-2.086.55-3.253 1.712l.86-1.529H53.25l-3.743 6.42c-.062-.06-.123-.122-.246-.122l-.184.184C47.42 36.972 45.763 38.5 44.72 38.5c-.491 0-.798-.367-.245-1.284l3.743-6.543h-1.35c.061-.978-.92-2.323-2.455-2.323-1.227 0-3.007.978-3.989 2.69l-2.393 4.158c-.185-.122-.369-.244-.491-.306l-.185.184c-1.657 1.957-3.743 3.486-6.014 3.486-1.596 0-2.577-1.59-1.166-3.975l.675-1.162c.43.061.86.122 1.35.122 2.455 0 5.278-1.284 7.12-4.464.674-1.161.92-2.201.92-3.118 0-2.08-1.35-3.486-3.069-3.486-1.288 0-2.823.918-3.866 2.69l-3.621 6.238c-1.35-.734-2.087-2.018-2.087-3.302 0-1.1.491-2.14 1.473-2.935l-.736-1.346c-1.657 1.162-2.394 2.752-2.394 4.342 0 1.835 1.044 3.608 2.946 4.586l-.675 1.223c-1.657 2.813-.675 5.932 2.64 5.932 2.577 0 4.54-1.162 6.136-2.69-.49 1.467.246 2.69 1.903 2.69.92 0 2.086-.612 3.252-1.529.123.917.86 1.529 2.026 1.529 1.104 0 2.332-.673 3.498-1.712l-.86 1.467h2.333l3.56-6.176c3.559-4.464 5.154-3.852 4.111-2.14l-3.007 5.259c-.982 1.712-.307 3.302 1.596 3.302 1.227 0 2.639-.856 3.989-2.08-.307 1.285.306 2.08 1.472 2.08 1.105 0 2.394-.917 3.437-1.896l-1.288 2.201c-3.13.918-5.156 2.202-5.156 3.975 0 2.202 3.437 2.69 5.094-.183l1.78-3.058c1.964-.611 3.866-1.834 5.892-3.79-.307 3.24 3.989 3.974 6.628.672h.49c.86 0 2.026-.306 3.07-.918l-1.535 2.691h2.332l3.56-6.176c3.559-4.464 5.155-3.852 4.111-2.14l-3.007 5.259c-.982 1.712-.307 3.302 1.596 3.302 1.902 0 4.112-2.08 6.076-4.28-.062-.184-.491-.551-.798-.674zM35.208 26.21c.675-1.162 1.473-1.712 2.087-1.712.86 0 1.289.55 1.289 1.407 0 2.14-2.64 6.053-6.26 6.053h-.491l3.375-5.748zm8.224 9.05c-1.411 2.202-2.823 3.241-3.744 3.241-.49 0-.797-.367-.245-1.284l3.253-5.626c1.227-2.14 3.743-1.59 2.577.49l-1.84 3.18zm17.675 8.439c-.49.856-1.289.734-1.289.122 0-.611.553-1.284 2.332-1.956l-1.043 1.834zm15.711-8.683h-.123c-.736 0-1.35.611-1.35 1.406 0 .306.061.55.246.795v.061c-1.105 1.896-3.744 1.53-2.394-.917l1.78-3.057 1.105-1.896c1.657-2.752 3.866-1.651 2.454.734l-1.718 2.874zm70.27.672c-.123-.367-.552-.733-.859-.794l-.184.183c-.86.978-1.903 1.896-2.824 2.507.737-2.201.553-5.626 2.026-8.56l-1.719-.918c-.982 1.345-3.068 4.341-5.155 6.788l-.184.183c-1.657 1.957-3.314 3.485-4.357 3.485-.491 0-.982-.489-.982-1.59v-.978c1.657.184 3.375-.856 4.48-2.752l.614-1.1c2.148-3.73-1.351-4.953-3.744-2.752l3.314-5.748h-2.332l-6.628 11.496a1.868 1.868 0 00-.43-.306l-.184.184c-1.657 1.957-3.805 3.485-5.462 3.485-1.411 0-2.271-.917-1.227-2.751l2.393-4.159c1.35-2.323 3.744-1.895 2.332.49l-.307.55h1.903l.307-.55c1.227-2.14.061-3.73-1.841-3.73-1.903 0-3.376.978-4.358 2.69l-2.271 3.914c-.061 0-.122-.061-.122-.061l-.184.183c-1.657 1.957-3.314 3.485-4.358 3.485-.491 0-.798-.366-.245-1.284l4.971-8.683h-2.332l-4.112 7.216c-1.78 1.59-3.13 2.507-3.56 2.323-.552-.244 0-1.1.307-1.59l4.542-7.888h-2.332l-4.542 7.766c-.491.428-1.043.856-1.473 1.223.737-2.201.553-5.626 2.025-8.56l-1.718-.918c-.982 1.345-6.321 8.439-8.47 10.885.185.305.553.55.86.795 1.35-1.53 5.769-7.216 6.567-8.317-.921 2.385-.43 6.727-2.639 6.727-.798 0-1.105-.856-1.105-.856l-1.473.733s.43 1.896 2.578 1.896c.245 0 .429 0 .675-.061h.061c1.166-.184 2.332-.673 3.437-1.468 0 .918.552 1.529 1.534 1.529 1.289 0 2.701-1.162 3.805-2.201-.245 1.223.491 2.201 1.964 2.201 1.473 0 3.069-1.162 4.603-2.69 0 1.528 1.227 2.69 3.13 2.69 1.902 0 3.744-1.04 5.401-2.446l-1.289 2.263h2.332l2.639-4.587v1.835c0 1.957.368 2.996 2.271 2.996 1.902 0 4.111-2.079 6.075-4.28 1.351-1.529 2.455-3.119 3.314-4.22-.92 2.385-.429 6.727-2.639 6.727-.797 0-1.104-.856-1.104-.856l-1.473.734s.429 1.895 2.577 1.895c.246 0 .43 0 .676-.061h.061c2.332-.428 4.725-2.324 6.444-4.342zm-15.466-1.834l.675-1.162c2.701-3.73 4.542-2.69 3.683-1.284l-1.105 1.896c-.675 1.223-2.7 2.079-3.253.55zm15.404 3.424a1.36 1.36 0 00-1.35 1.345c0 .734.553 1.346 1.35 1.346.737 0 1.351-.55 1.351-1.346a1.36 1.36 0 00-1.351-1.345zm.123-.918h2.332l7.304-12.658h-2.333l-7.303 12.658z" fill="#fff"/></svg>4 38.5615 28.7645 36.9716 30.176 34.5868L30.8511 33.425C31.2807 33.4861 31.7103 33.5473 32.2013 33.5473C34.6561 33.5473 37.4792 32.2631 39.3203 29.0834C39.9954 27.9215 40.2409 26.882 40.2409 25.9648C40.2409 23.8857 38.8907 22.4792 37.1723 22.4792C35.8835 22.4792 34.3492 23.3965 33.3059 25.1698L29.685 31.407C28.3349 30.6732 27.5984 29.3891 27.5984 28.105C27.5984 27.0043 28.0894 25.9647 29.0713 25.1698L28.3349 23.8245C26.6779 24.9864 25.9414 26.5762 25.9414 28.1661C25.9414 30.0006 26.9847 31.7739 28.8872 32.7523L28.2121 33.9753C26.5551 36.7882 27.5371 39.9068 30.8511 39.9068C33.4287 39.9068 35.3925 38.7449 36.9882 37.2162C36.4972 38.6838 37.2337 39.9068 38.8907 39.9068C39.8113 39.9068 40.9773 39.2953 42.1434 38.378C42.2661 39.2953 43.0026 39.9068 44.1686 39.9068C45.2733 39.9068 46.5007 39.2341 47.6668 38.1946L46.8076 39.6622H49.1397L52.6992 33.4861C56.2587 29.0222 57.8544 29.6337 56.811 31.3459L53.8039 36.6047C52.8219 38.3169 53.497 39.9068 55.3995 39.9068C56.6269 39.9068 58.0385 39.0507 59.3886 37.8277C59.0818 39.1118 59.6955 39.9068 60.8615 39.9068C61.9662 39.9068 63.255 38.9895 64.2983 38.0111L63.0095 40.2125C59.8796 41.1298 57.8544 42.4139 57.8544 44.1872C57.8544 46.3886 61.2911 46.8778 62.9482 44.0038L64.7279 40.9463C66.6918 40.3348 68.5943 39.1118 70.6195 37.1551C70.3127 40.396 74.6087 41.1298 77.2476 37.8277H77.7386C78.5978 37.8277 79.7638 37.522 80.8071 36.9105L79.2729 39.601H81.6049L85.1645 33.425C88.724 28.9611 90.3196 29.5726 89.2763 31.2847L86.2692 36.5436C85.2872 38.2557 85.9623 39.8456 87.8648 39.8456C89.7673 39.8456 91.9767 37.7665 93.9405 35.5652C93.8792 35.3817 93.4496 35.0148 93.1427 34.8925ZM35.2084 26.2094C35.8835 25.0475 36.6813 24.4972 37.2951 24.4972C38.1542 24.4972 38.5838 25.0475 38.5838 25.9036C38.5838 28.0438 35.9449 31.9574 32.324 31.9574H31.833L35.2084 26.2094ZM43.4322 35.2594C42.0206 37.4608 40.6091 38.5003 39.6885 38.5003C39.1976 38.5003 38.8907 38.1334 39.443 37.2162L42.6957 31.5905C43.9231 29.4503 46.4393 30.0006 45.2733 32.0797L43.4322 35.2594ZM61.107 43.698C60.6161 44.5541 59.8182 44.4318 59.8182 43.8203C59.8182 43.2088 60.3706 42.5362 62.1503 41.8636L61.107 43.698ZM76.818 35.0148H76.6953C75.9588 35.0148 75.3451 35.6263 75.3451 36.4213C75.3451 36.727 75.4065 36.9716 75.5906 37.2162V37.2774C74.4859 39.173 71.847 38.8061 73.1971 36.3601L74.9769 33.3027L76.0816 31.407C77.7386 28.6553 79.9479 29.756 78.5364 32.1408L76.818 35.0148Z" fill="white"/>
<path d="M147.088 35.6884C146.965 35.3215 146.536 34.9546 146.229 34.8935L146.045 35.0769C145.185 36.0553 144.142 36.9726 143.221 37.5841C143.958 35.3827 143.774 31.9583 145.247 29.0232L143.528 28.1059C142.546 29.4512 140.46 32.4475 138.373 34.8935L138.189 35.0769C136.532 37.0337 134.875 38.5624 133.832 38.5624C133.341 38.5624 132.85 38.0733 132.85 36.9726V35.9942C134.507 36.1776 136.225 35.1381 137.33 33.2425L137.944 32.1418C140.092 28.4117 136.593 27.1887 134.2 29.3901L137.514 23.642H135.182L128.554 35.1381C128.431 35.0158 128.247 34.8935 128.124 34.8323L127.94 35.0158C126.283 36.9726 124.135 38.5013 122.478 38.5013C121.067 38.5013 120.207 37.5841 121.251 35.7496L123.644 31.5914C124.994 29.2678 127.388 29.6958 125.976 32.0806L125.669 32.631H127.572L127.879 32.0806C129.106 29.9404 127.94 28.3505 126.038 28.3505C124.135 28.3505 122.662 29.3289 121.68 31.0411L119.409 34.9546C119.348 34.9546 119.287 34.8935 119.287 34.8935L119.103 35.0769C117.446 37.0337 115.789 38.5624 114.745 38.5624C114.254 38.5624 113.947 38.1956 114.5 37.2783L119.471 28.5951H117.139L113.027 35.8107C111.247 37.4006 109.897 38.3178 109.467 38.1344C108.915 37.8898 109.467 37.0337 109.774 36.5445L114.316 28.6563H111.984L107.442 36.4222C106.951 36.8503 106.399 37.2783 105.969 37.6452C106.706 35.4438 106.522 32.0195 107.994 29.0843L106.276 28.1671C105.294 29.5123 99.9549 36.6057 97.8069 39.0516C97.991 39.3574 98.3592 39.602 98.6661 39.8466C100.016 38.3178 104.435 32.631 105.233 31.5303C104.312 33.9151 104.803 38.2567 102.594 38.2567C101.796 38.2567 101.489 37.4006 101.489 37.4006L100.016 38.1344C100.016 38.1344 100.446 40.03 102.594 40.03C102.839 40.03 103.023 40.03 103.269 39.9689H103.33C104.496 39.7854 105.662 39.2962 106.767 38.5013C106.767 39.4185 107.319 40.03 108.301 40.03C109.59 40.03 111.002 38.8682 112.106 37.8287C111.861 39.0516 112.597 40.03 114.07 40.03C115.543 40.03 117.139 38.8682 118.673 37.3394C118.673 38.8682 119.9 40.03 121.803 40.03C123.705 40.03 125.547 38.9905 127.204 37.5841L125.915 39.8466H128.247L130.886 35.2604V37.0949C130.886 39.0516 131.254 40.0912 133.157 40.0912C135.059 40.0912 137.268 38.0121 139.232 35.8107C140.583 34.282 141.687 32.6921 142.546 31.5914C141.626 33.9762 142.117 38.3178 139.907 38.3178C139.11 38.3178 138.803 37.4618 138.803 37.4618L137.33 38.1956C137.33 38.1956 137.759 40.0912 139.907 40.0912C140.153 40.0912 140.337 40.0912 140.583 40.03H140.644C142.976 39.602 145.369 37.7064 147.088 35.6884ZM131.622 33.854L132.297 32.6921C134.998 28.962 136.839 30.0016 135.98 31.408L134.875 33.3036C134.2 34.5266 132.175 35.3827 131.622 33.854Z" fill="white"/>
<path d="M147.026 37.2781C146.29 37.2781 145.676 37.8896 145.676 38.6233C145.676 39.3571 146.229 39.9686 147.026 39.9686C147.763 39.9686 148.377 39.4183 148.377 38.6233C148.377 37.8896 147.763 37.2781 147.026 37.2781Z" fill="white"/>
<path d="M147.149 36.3602H149.481L156.785 23.7023H154.452L147.149 36.3602Z" fill="white"/>
</svg>
